<?xml version="1.0" encoding="UTF-8"?>
<svg width="58px" height="27px" viewBox="0 0 58 27" version="1.1" xmlns="http://www.w3.org/2000/svg" xmlns:xlink="http://www.w3.org/1999/xlink">
    <!-- Generator: Sketch 46.2 (44496) - http://www.bohemiancoding.com/sketch -->
    <title>用友云logo</title>
    <defs>
        <polygon id="path-1" points="0 26.9516723 57.8835589 26.9516723 57.8835589 0 0 0"></polygon>
    </defs>
    <g id="01--首页" stroke="none" stroke-width="1" fill="none" fill-rule="evenodd">
        <g id="用友云logo">
            <g id="用友云">
                <g id="Page-1">
                    <mask id="mask-2" fill="white">
                        <use xlink:href="#path-1"></use>
                    </mask>
                    <g id="Clip-2"></g>
                    <path d="M11.0177947,10.3453109 L15.1971027,10.3453109 L15.1971027,8.01128571 L11.0177947,8.01128571 L11.0177947,10.3453109 Z M11.0177947,3.33393277 L14.6543726,3.33393277 C14.9472395,3.33393277 15.1260913,3.45509244 15.1260913,3.81244538 L15.1260913,5.64186555 L11.0177947,5.64186555 L11.0177947,3.33393277 Z M7.98084411,10.4560336 C7.97356654,10.4868908 7.98084411,10.3423613 7.98084411,10.3453109 L3.90474525,10.3453109 L3.90474525,8.01105882 L7.98084411,8.01105882 L7.98084411,10.4560336 Z M4.3069962,3.33393277 L7.98084411,3.33121008 C7.98084411,3.33552101 7.97819772,5.63846218 7.98084411,5.64186555 L3.90231939,5.64186555 L3.90231939,3.8437563 C3.90231939,3.8437563 3.8579924,3.33393277 4.3069962,3.33393277 L4.3069962,3.33393277 Z M16.9446008,0.939327731 L1.92370342,0.939327731 C1.49123954,0.957252101 1.02260837,1.19752941 1.02260837,1.81603361 L1.02260837,9.2929916 C1.02260837,13.4720924 0.321756654,16.1269412 0.0205095057,17.0714874 L0.016539924,17.088958 C0.00132319392,17.1313866 -0.0339619772,17.3480672 0.0895361217,17.5032605 C0.137171103,17.5699664 0.235087452,17.6464286 0.410631179,17.6464286 L2.31911787,17.6464286 C2.72070722,17.6464286 2.91742205,17.3480672 2.96924715,17.2593529 L2.9791711,17.2382521 C3.422,16.281 3.63349049,14.4322941 3.82204563,12.6986218 L7.98084411,12.6986218 L7.98084411,16.227 C7.98084411,16.5841261 8.26841825,16.6923529 8.44440304,16.6923529 L10.603635,16.6923529 L10.6552395,16.6871345 C10.8263726,16.6719328 11.0177947,16.5473697 11.0177947,16.227 L11.0177947,12.7217647 L15.1260913,12.7231261 L15.1260913,15.2062185 C15.1260913,15.2456975 15.1260913,15.323521 15.0092091,15.323521 L13.7184335,15.323521 C13.3014068,15.323521 13.213635,15.5871681 13.213635,15.8061176 L13.213635,17.1434118 C13.213635,17.4739916 13.4738631,17.6491513 13.7270342,17.6491513 C13.7464411,17.6491513 13.7640837,17.6464286 13.7773156,17.6439328 L17.3168593,17.6439328 C17.3364867,17.6439328 17.5440076,17.6416639 17.7532928,17.5198235 C17.9539772,17.4032017 18.188403,17.1599748 18.188403,16.6555966 L18.188403,2.19312605 C18.188403,1.03031092 17.6022281,0.939327731 16.9446008,0.939327731 L16.9446008,0.939327731 Z" id="Fill-1" fill="#DD3730" mask="url(#mask-2)"></path>
                    <path d="M37.8275118,1.90107227 L26.3728426,1.90107227 C26.4434129,1.09833277 26.4716411,0.615055462 26.4716411,0.615055462 C26.5100137,0.394744538 26.4409871,0.257021849 26.3732837,0.178063866 C26.2374357,0.00222352941 26.0131544,-4.5378151e-05 25.9884548,-4.5378151e-05 L24.0404928,-4.5378151e-05 C23.6673521,-4.5378151e-05 23.5160669,0.291055462 23.4913673,0.441257143 C23.4913673,0.441257143 23.4615954,0.992601681 23.3877171,1.90107227 L20.4061202,1.90107227 C20.1410403,1.90107227 19.9262418,2.12387899 19.9262418,2.39592101 L19.9262418,3.77428235 C19.9262418,4.04677815 20.1410403,4.26618151 20.4061202,4.26618151 L23.1577019,4.26618151 C22.72193,8.03778655 21.7826829,13.6873664 19.8561125,16.8765429 C19.7985536,16.9786437 19.7072532,17.2511395 19.8250175,17.4589714 C19.8788274,17.5442824 19.9791696,17.6438874 20.2012456,17.6463832 L22.107527,17.6463832 L22.1097323,17.6463832 C22.230584,17.6438874 22.6279833,17.5946521 22.8782875,17.2016773 L22.9153369,17.1422319 C22.9193065,17.1340639 22.926143,17.1218118 22.926143,17.1202235 C24.1690631,14.8656101 25.0044395,11.4538538 25.5462875,8.31255126 L33.1396563,8.31255126 C33.2441886,8.31255126 33.4164243,8.30279496 33.4164243,8.59525714 C33.4164243,9.09600504 32.5175346,10.4178706 31.3334966,11.7574336 C30.7340897,11.1185092 30.1739376,10.4289882 29.6691392,9.6861479 C29.535276,9.48897983 29.309451,9.48897983 29.309451,9.48897983 L26.665489,9.48897983 C26.4218008,9.48897983 26.4006297,9.65710588 26.4495878,9.77395462 C27.2922418,11.3490303 28.330508,12.6645429 29.3524548,13.7322908 C28.6291087,14.3591899 27.9130403,14.8656101 27.3030479,15.1258538 C26.9960669,15.2554084 26.5737475,15.324837 26.3362342,15.324837 L25.7672608,15.324837 C25.3936791,15.324837 25.3167133,15.5558118 25.3167133,15.8401059 L25.3167133,17.2164252 C25.3167133,17.5578958 25.4801278,17.6438874 25.7436639,17.6438874 L27.0609034,17.6438874 C27.5301962,17.6438874 28.1040213,17.5197782 28.5715498,17.2935681 C29.3370175,16.9248706 30.288835,16.290484 31.2750555,15.4857025 C32.8933217,16.7839714 34.0855194,17.316484 33.7807437,17.1079714 C33.6257095,17.0065513 34.7698312,17.7171731 36.310911,17.7171731 L37.539276,17.7171731 C37.7670859,17.7171731 38.0162875,17.5851227 38.0162875,17.2854 L38.0162875,15.7296101 C38.0162875,15.4387361 37.8308198,15.3615933 37.6389567,15.3615933 L37.4320973,15.3615933 C36.1834433,15.3615933 35.8266221,15.1381059 35.3471848,14.9407109 C34.6555954,14.550005 33.9803255,14.0962235 33.3262266,13.5850387 C35.2691163,11.5598118 36.8984091,9.13366891 36.8984091,7.17174454 C36.8984091,6.26962689 36.1781506,5.93995462 35.4841354,5.93995462 L25.9163407,5.93995462 C25.9979376,5.35162689 26.0680669,4.78825714 26.1295954,4.26618151 L37.8275118,4.26618151 C38.0866373,4.26618151 38.3009947,4.04677815 38.3009947,3.77428235 L38.3009947,2.39592101 C38.3009947,2.12387899 38.0866373,1.90107227 37.8275118,1.90107227" id="Fill-3" fill="#DD3730" mask="url(#mask-2)"></path>
                    <path d="M41.2978745,3.40222689 L56.3099506,3.40222689 C56.5935551,3.40222689 56.8231293,3.16285714 56.8231293,2.87198319 L56.8231293,1.47478992 C56.8231293,1.18187395 56.5935551,0.946361345 56.3099506,0.946361345 L41.2978745,0.946361345 C41.0140494,0.946361345 40.7791825,1.18187395 40.7791825,1.47478992 L40.7791825,2.87198319 C40.7791825,3.16285714 41.0140494,3.40222689 41.2978745,3.40222689" id="Fill-4" fill="#DD3730" mask="url(#mask-2)"></path>
                    <path d="M57.3695863,5.89405462 L40.2351072,5.89405462 C39.9508411,5.89405462 39.7197232,6.13455882 39.7197232,6.42634034 L39.7197232,7.82194538 C39.7197232,8.11213866 39.9508411,8.35060084 40.2351072,8.35060084 L43.0100654,8.35060084 L40.5114342,15.4046345 C40.4730616,15.4951639 40.1296928,16.3144664 40.5178297,16.9400042 C40.782689,17.3754076 41.3223316,17.5959454 42.1078677,17.5959454 L54.9223392,17.5959454 C55.791016,17.5959454 56.4380578,17.3479538 56.8089932,16.8835084 C57.1333962,16.4798697 57.2299894,15.9410042 57.1023011,15.2784832 L55.9897156,11.3122059 C55.9008411,10.9945588 55.7147118,10.8772563 55.5733506,10.8323319 L55.5437992,10.8230294 L53.5819437,10.8230294 L53.488438,10.8230294 L52.5778601,10.8230294 C52.1495863,10.8230294 52.0613734,11.0912143 52.0613734,11.3126597 L52.0613734,11.721063 C52.0613734,12.0566345 52.3275559,12.2338361 52.5864608,12.2338361 C52.6045445,12.2338361 52.6228487,12.2327017 52.6382859,12.2313403 L53.0625901,12.2313403 C53.3014266,13.1264244 53.8543011,14.9923739 53.8551833,14.9991807 L44.2935635,14.9991807 C44.1065521,14.9991807 44.1010388,14.8709874 44.1241947,14.7933908 L46.2838677,8.35060084 L57.3695863,8.35060084 C57.654073,8.35060084 57.8836471,8.11213866 57.8836471,7.82194538 L57.8836471,6.42634034 C57.8836471,6.13455882 57.654073,5.89405462 57.3695863,5.89405462" id="Fill-5" fill="#DD3730" mask="url(#mask-2)"></path>
                    <path d="M32.2767133,23.9045975 C31.9765688,24.4870261 31.5926221,24.7311605 31.1508958,24.5469252 C30.7067437,24.3626899 30.6619757,23.9086815 30.9932152,23.2722529 C31.3046068,22.669858 31.6892152,22.4354798 32.1177095,22.6287908 C32.5563483,22.8230092 32.6024395,23.2654462 32.2767133,23.9045975 L32.2767133,23.9045975 Z M31.6340821,21.890942 C30.9932152,21.890942 30.5155422,22.0586143 30.1600441,22.3855639 C29.8188806,22.6902782 29.6325308,23.1835387 29.6325308,23.5864966 C29.6325308,24.0872445 29.8340973,24.5156143 30.1406373,24.7983202 C30.4941506,25.124816 31.0401886,25.2859084 31.6340821,25.2859084 C32.2767133,25.2859084 32.7598996,25.1141521 33.1222342,24.7885639 C33.4587665,24.482942 33.6435726,23.9767487 33.6435726,23.5864966 C33.6435726,23.0896059 33.4757475,22.6868748 33.1429643,22.3773958 C32.7766601,22.0558916 32.2767133,21.890942 31.6340821,21.890942 L31.6340821,21.890942 Z M36.6306829,22.021858 C36.5173293,22.021858 36.4520517,22.0951437 36.4520517,22.204505 L36.4520517,24.5190176 C35.7062114,24.7216311 35.2234662,24.5117571 35.2234662,24.1811773 L35.2234662,22.1920261 C35.2234662,22.0892445 35.1643635,22.021858 35.0516715,22.021858 L33.9423939,22.021858 L33.9423939,24.1260429 C33.9423939,25.1903874 35.2629414,25.6954462 37.5233977,25.0390513 C37.6510859,24.9948076 37.7432684,24.875463 37.7432684,24.711421 L37.7432684,22.021858 L37.7355498,22.021858 L36.6306829,22.021858 Z M17.5294966,22.021858 L16.5715042,22.021858 C16.4074281,22.021858 16.3333293,22.0817571 16.2746677,22.1976983 C16.2526144,22.2405807 15.5405156,23.6783874 15.5405156,23.6783874 C15.4831772,23.7995471 15.3755574,23.7886563 15.3290251,23.6783874 C15.3290251,23.6783874 14.700949,22.3134126 14.6663255,22.2471605 C14.5937703,22.100816 14.4779909,22.021858 14.2986981,22.021858 L13.3740061,22.021858 C13.3279148,22.021858 13.3175498,22.0586143 13.3279148,22.0926479 C13.3409262,22.1296311 14.7470403,25.2586815 14.7470403,25.2586815 C14.7470403,25.2586815 14.0442038,26.6656311 14.0272228,26.7017067 C13.9592989,26.8482782 14.0442038,26.9517403 14.1860061,26.9517403 L15.1909719,26.9517403 C15.1909719,26.9517403 17.5667665,22.1797739 17.5945536,22.1323538 C17.6161658,22.0858412 17.5996259,22.021858 17.5294966,22.021858 L17.5294966,22.021858 Z M20.0457703,23.9045975 C19.7456259,24.4870261 19.3647665,24.7311605 18.9188502,24.5469252 C18.4786677,24.3626899 18.4330175,23.9086815 18.7627133,23.2722529 C19.0771924,22.669858 19.4582722,22.4354798 19.8907361,22.6287908 C20.3284928,22.8230092 20.3787741,23.2654462 20.0457703,23.9045975 L20.0457703,23.9045975 Z M19.4053445,21.890942 C18.7627133,21.890942 18.2852608,22.0586143 17.9293217,22.3855639 C17.5965384,22.6902782 17.4031316,23.1835387 17.4031316,23.5864966 C17.4031316,24.0872445 17.6064624,24.5156143 17.9130023,24.7983202 C18.2665156,25.124816 18.811451,25.2859084 19.4053445,25.2859084 C20.0457703,25.2859084 20.5309414,25.1141521 20.893276,24.7885639 C21.2284852,24.482942 21.4137323,23.9767487 21.4137323,23.5864966 C21.4137323,23.0896059 21.2476715,22.6868748 20.9067285,22.3773958 C20.5443939,22.0558916 20.0457703,21.890942 19.4053445,21.890942 L19.4053445,21.890942 Z M29.7641886,22.021858 L28.8141354,22.021858 C28.6463103,22.021858 28.5702266,22.0817571 28.5146525,22.1976983 C28.491276,22.2405807 27.7800593,23.6783874 27.7800593,23.6783874 C27.7238236,23.7995471 27.6133369,23.7886563 27.5663635,23.6783874 C27.5663635,23.6783874 26.941816,22.3134126 26.9041049,22.2471605 C26.8330935,22.100816 26.7155498,22.021858 26.5378008,22.021858 L25.6164167,22.021858 C25.5685612,22.021858 25.5557703,22.0586143 25.5685612,22.0926479 C25.5793673,22.1296311 26.9883483,25.2586815 26.9883483,25.2586815 C26.9883483,25.2586815 26.2839681,26.6656311 26.2676487,26.7017067 C26.1957551,26.8482782 26.2846297,26.9517403 26.4242266,26.9517403 L27.4296335,26.9517403 C27.4296335,26.9517403 29.8082951,22.1797739 29.8332152,22.1323538 C29.855489,22.0858412 29.8413749,22.021858 29.7641886,22.021858 L29.7641886,22.021858 Z M21.9346297,22.1854462 C21.8036335,22.2267403 21.7125536,22.3490345 21.7125536,22.5128496 L21.7125536,25.1990092 L21.7220365,25.2087655 L21.7220365,25.1990092 L22.8249186,25.1990092 C22.9393749,25.1990092 23.001124,25.1257235 23.001124,25.0172697 L23.001124,22.7025303 C23.751816,22.4987824 24.2352228,22.7141017 24.2352228,23.0392361 L24.2352228,25.0267992 C24.2352228,25.1345723 24.2872684,25.1990092 24.4050327,25.1990092 L25.5136487,25.1990092 L25.5136487,23.0950513 C25.5136487,22.0334294 24.1968502,21.5310933 21.9346297,22.1854462 L21.9346297,22.1854462 Z" id="Fill-6" fill="#8B8B8B" mask="url(#mask-2)"></path>
                    <path d="M55.0822251,23.3198773 C55.3709019,22.7562807 55.7411757,22.5096504 56.1672441,22.6648437 L56.1672441,24.2614739 C55.8955483,24.6240454 55.579746,24.7488353 55.2377004,24.5934151 C54.802149,24.3987429 54.7538525,23.9603899 55.0822251,23.3198773 M54.2153125,24.8495748 C54.5796319,25.1679025 55.0822251,25.3328521 55.7211072,25.3328521 C55.8794494,25.3328521 56.030073,25.3219613 56.1672441,25.3026756 L56.1672441,25.3115244 L57.2670388,25.3115244 C57.377746,25.3115244 57.4417004,25.2423227 57.4417004,25.1345496 L57.4417004,20.2951966 L56.3427878,20.2951966 C56.2325217,20.2951966 56.1672441,20.3666672 56.1672441,20.4728521 L56.1672441,21.9712387 C56.0232365,21.9480958 55.8739361,21.937205 55.7211072,21.937205 C55.0822251,21.937205 54.5946281,22.1082807 54.2331757,22.4354571 C53.8979665,22.7399445 53.7118373,23.245684 53.7118373,23.6354824 C53.7118373,24.1341882 53.8794418,24.5369193 54.2153125,24.8495748" id="Fill-7" fill="#8B8B8B" mask="url(#mask-2)"></path>
                    <path d="M43.5445475,25.3027437 L43.5445475,25.3115924 L44.6432395,25.3115924 C44.7554905,25.3115924 44.820327,25.2421639 44.820327,25.1346176 L44.820327,20.2952647 L43.7207529,20.2952647 C43.6102662,20.2952647 43.5445475,20.3667353 43.5445475,20.4729202 L43.5445475,21.9710798 L43.5445475,22.6649118 L43.5445475,24.261542 L43.5445475,25.3027437 Z" id="Fill-8" fill="#8B8B8B" mask="url(#mask-2)"></path>
                    <path d="M47.8216616,23.9045975 C47.5237224,24.4870261 47.1393346,24.7311605 46.6965057,24.5469252 C46.2534563,24.3626899 46.2095703,23.9086815 46.5399278,23.2722529 C46.8515399,22.669858 47.2359278,22.4354798 47.6633194,22.6287908 C48.1030608,22.8230092 48.1500342,23.2654462 47.8216616,23.9045975 L47.8216616,23.9045975 Z M47.1807947,21.890942 C46.5399278,21.890942 46.0626958,22.0586143 45.7065361,22.3855639 C45.3653726,22.6902782 45.1790228,23.1835387 45.1790228,23.5864966 C45.1790228,24.0872445 45.3814715,24.5156143 45.6873498,24.7983202 C46.0424068,25.124816 46.5873422,25.2859084 47.1807947,25.2859084 C47.8216616,25.2859084 48.3068327,25.1141521 48.6696084,24.7885639 C49.0052586,24.482942 49.189403,23.9767487 49.189403,23.5864966 C49.189403,23.0896059 49.0211369,22.6868748 48.6896768,22.3773958 C48.3251369,22.0558916 47.8216616,21.890942 47.1807947,21.890942 L47.1807947,21.890942 Z M52.1771749,22.021858 C52.0644829,22.021858 51.997,22.0951437 51.997,22.204505 L51.997,24.5190176 C51.2535856,24.7216311 50.7699582,24.5117571 50.7699582,24.1811773 L50.7699582,22.1920261 C50.7699582,22.0892445 50.7128403,22.021858 50.5981635,22.021858 L49.4884449,22.021858 L49.4884449,24.1260429 C49.4884449,25.1903874 50.8105361,25.6954462 53.0720951,25.0390513 C53.1997833,24.9948076 53.2877757,24.875463 53.2877757,24.711421 L53.2877757,22.021858 L53.2813802,22.021858 L52.1771749,22.021858 Z" id="Fill-9" fill="#8B8B8B" mask="url(#mask-2)"></path>
                    <path d="M42.9492867,24.3747832 C42.9166479,24.3790941 42.8884198,24.3888504 42.8604122,24.3952034 C42.7444122,24.4169849 42.610108,24.4276487 42.4559559,24.4276487 C42.3317962,24.4276487 42.2168989,24.4142622 42.1079559,24.3888504 C41.9983513,24.3636655 41.9021992,24.3194218 41.8194996,24.2602034 C41.7365795,24.2000773 41.6695376,24.1163546 41.6188152,24.0115311 C41.5680928,23.9053462 41.5431726,23.7739765 41.5431726,23.6149261 C41.5431726,23.3136151 41.6271954,23.1012454 41.7950205,22.9791782 C41.9630662,22.8566571 42.1756593,22.7958504 42.4314768,22.7958504 C42.5016061,22.7958504 42.565781,22.7972118 42.6281916,22.7999345 C42.6908228,22.8012958 42.7519103,22.8069681 42.8165262,22.8149092 C42.8804806,22.8230773 42.9431118,22.8332874 43.0154464,22.8223966 C43.1426935,22.8033378 43.1426935,22.6855815 43.1426935,22.6855815 L43.1426935,21.9522706 C43.0469825,21.9291277 42.9534768,21.9116571 42.8604122,21.8984975 C42.7611726,21.8853378 42.661051,21.8771697 42.5589445,21.8733126 C42.4590433,21.8690017 42.3509825,21.8665059 42.2404958,21.8665059 C41.9099179,21.8665059 41.613743,21.9087076 41.3596897,21.9967412 C41.1034312,22.0818252 40.8866479,22.2018504 40.7100015,22.354321 C40.5351194,22.5070185 40.4010357,22.6903462 40.3106175,22.9054387 C40.2195376,23.1203042 40.1747696,23.3560437 40.1747696,23.6149261 C40.1747696,23.8826571 40.2195376,24.1211193 40.3106175,24.3346235 C40.4010357,24.5469933 40.5362221,24.7291866 40.7157354,24.8823378 C40.8932639,25.035716 41.1162221,25.1514303 41.3746859,25.2340185 C41.6371194,25.3150185 41.9372639,25.3558588 42.2797506,25.3558588 C42.483743,25.3558588 42.6848684,25.3463294 42.8877582,25.3238672 C42.968473,25.3150185 43.0555833,25.299363 43.1426935,25.2809849 L43.1426935,24.5435899 C43.1426935,24.5435899 43.1592335,24.350279 42.9492867,24.3747832" id="Fill-10" fill="#8B8B8B" mask="url(#mask-2)"></path>
                </g>
            </g>
        </g>
    </g>
</svg>
